<svg width="109" height="108" viewBox="0 0 109 108" fill="none" xmlns="http://www.w3.org/2000/svg">
<path d="M54.4981 0.375003C47.4552 0.372539 40.4809 1.75791 33.9737 4.45194C27.4665 7.14598 21.554 11.0959 16.574 16.0759C11.5939 21.0559 7.64403 26.9685 4.94999 33.4757C2.25596 39.9829 0.870586 46.9572 0.87305 54C0.870586 61.0428 2.25596 68.0171 4.94999 74.5243C7.64403 81.0315 11.5939 86.9441 16.574 91.9241C21.554 96.9041 27.4665 100.854 33.9737 103.548C40.4809 106.242 47.4552 107.627 54.4981 107.625C61.5409 107.627 68.5152 106.242 75.0224 103.548C81.5296 100.854 87.4421 96.9041 92.4221 91.9241C97.4022 86.9441 101.352 81.0315 104.046 74.5243C106.74 68.0171 108.126 61.0428 108.123 54C108.126 46.9572 106.74 39.9829 104.046 33.4757C101.352 26.9685 97.4022 21.0559 92.4221 16.0759C87.4421 11.0959 81.5296 7.14598 75.0224 4.45194C68.5152 1.75791 61.5409 0.372539 54.4981 0.375003ZM54.4981 92.625C52.8944 92.6287 51.3258 92.1563 49.9909 91.2677C48.656 90.3791 47.6149 89.1143 46.9995 87.6334C46.3841 86.1526 46.2221 84.5224 46.534 82.9494C46.846 81.3764 47.6178 79.9314 48.7518 78.7975C49.8857 77.6635 51.3307 76.8917 52.9037 76.5798C54.4767 76.2678 56.1069 76.4298 57.5877 77.0452C59.0686 77.6606 60.3334 78.7017 61.222 80.0366C62.1106 81.3715 62.583 82.9401 62.5793 84.5438C62.5744 86.6855 61.7213 88.7381 60.2069 90.2526C58.6924 91.767 56.6398 92.62 54.4981 92.625ZM64.3043 25.875L61.248 67.125C61.229 67.4102 61.1021 67.6774 60.8932 67.8724C60.6842 68.0675 60.4089 68.1756 60.1231 68.175H48.8731C48.5872 68.1756 48.3119 68.0675 48.1029 67.8724C47.894 67.6774 47.7671 67.4102 47.7481 67.125L44.6918 25.875C44.609 24.5362 44.8012 23.1947 45.2565 21.933C45.7118 20.6713 46.4207 19.5162 47.3394 18.5389C48.2582 17.5616 49.3673 16.7827 50.5984 16.2503C51.8296 15.718 53.1567 15.4433 54.4981 15.4433C55.8394 15.4433 57.1665 15.718 58.3977 16.2503C59.6288 16.7827 60.7379 17.5616 61.6567 18.5389C62.5754 19.5162 63.2843 20.6713 63.7396 21.933C64.1949 23.1947 64.3871 24.5362 64.3043 25.875Z" fill="#FFC048"/>
</svg>
