<svg width="104" height="100" viewBox="0 0 104 100" fill="none" xmlns="http://www.w3.org/2000/svg">
<path fill-rule="evenodd" clip-rule="evenodd" d="M37 2.25L30.5 12H3.5C2.70435 12 1.94129 12.3161 1.37868 12.8787C0.816071 13.4413 0.5 14.2044 0.5 15C0.5 15.7956 0.816071 16.5587 1.37868 17.1213C1.94129 17.6839 2.70435 18 3.5 18H93.5C94.2957 18 95.0587 17.6839 95.6213 17.1213C96.1839 16.5587 96.5 15.7956 96.5 15C96.5 14.2044 96.1839 13.4413 95.6213 12.8787C95.0587 12.3161 94.2957 12 93.5 12H66.5L60 2.25C59.5487 1.56063 58.9332 0.994148 58.2089 0.601428C57.4845 0.208707 56.674 0.00204394 55.85 0H41.2C39.5 0 37.95 0.85 37 2.25ZM3 30C3 29.2044 3.31607 28.4413 3.87868 27.8787C4.44129 27.3161 5.20435 27 6 27H91C91.7957 27 92.5587 27.3161 93.1213 27.8787C93.6839 28.4413 94 29.2044 94 30C94 30.7956 93.6839 31.5587 93.1213 32.1213C92.5587 32.6839 91.7957 33 91 33H83.065L81.46 44.14C74.3889 43.45 67.2963 45.2214 61.38 49.155C61.1777 48.4613 60.7318 47.864 60.1243 47.4727C59.5168 47.0815 58.7885 46.9227 58.0733 47.0255C57.358 47.1283 56.7039 47.4858 56.2312 48.0322C55.7584 48.5787 55.4988 49.2774 55.5 50V54.215C50.3412 59.9073 47.4889 67.3178 47.5 75C47.5 85.26 52.485 94.36 60.165 100H27.85C25.35 100 23.25 98.15 22.9 95.7L13.93 33H6C5.20435 33 4.44129 32.6839 3.87868 32.1213C3.31607 31.5587 3 30.7956 3 30ZM38.5 47C39.2957 47 40.0587 47.3161 40.6213 47.8787C41.1839 48.4413 41.5 49.2043 41.5 50V80C41.5 80.394 41.4224 80.7841 41.2716 81.1481C41.1209 81.512 40.8999 81.8428 40.6213 82.1213C40.3427 82.3999 40.012 82.6209 39.6481 82.7716C39.2841 82.9224 38.894 83 38.5 83C38.106 83 37.7159 82.9224 37.3519 82.7716C36.988 82.6209 36.6573 82.3999 36.3787 82.1213C36.1001 81.8428 35.8791 81.512 35.7284 81.1481C35.5776 80.7841 35.5 80.394 35.5 80V50C35.5 49.2043 35.8161 48.4413 36.3787 47.8787C36.9413 47.3161 37.7043 47 38.5 47Z" fill="#3B9E62"/>
<path fill-rule="evenodd" clip-rule="evenodd" d="M103.5 75C103.5 81.6304 100.866 87.9893 96.1777 92.6777C91.4893 97.3661 85.1304 100 78.5 100C71.8696 100 65.5107 97.3661 60.8223 92.6777C56.1339 87.9893 53.5 81.6304 53.5 75C53.5 68.3696 56.1339 62.0107 60.8223 57.3223C65.5107 52.6339 71.8696 50 78.5 50C85.1304 50 91.4893 52.6339 96.1777 57.3223C100.866 62.0107 103.5 68.3696 103.5 75ZM77.62 82.87L92.62 67.87L88.38 63.63L75.5 76.51L68.62 69.63L64.38 73.87L73.38 82.87L75.5 84.99L77.62 82.87Z" fill="#78F5A7"/>
</svg>
